<svg xmlns="http://www.w3.org/2000/svg" width="3315" height="3315" viewBox="0 0 3315 3315"><g fill="none" fill-rule="evenodd" transform="translate(.844 .743)"><path fill="#E82440" d="M3214.37333,1971.57323 C3184.49361,1986.94338 3155.84653,1983.34675 3129.20842,1985.80887 C2973.43326,2000.22555 2824.69838,2044.32042 2676.36056,2090.89551 C2571.59783,2123.79015 2467.73587,2159.52709 2357.13586,2168.67556 C2184.75559,2182.92326 2038.10673,2122.7522 1906.94293,2013.70686 C1811.24723,1934.1466 1737.54352,1834.82301 1662.74347,1736.25978 C1595.89634,1648.16659 1530.89816,1558.19664 1442.2546,1490.28318 C1336.19403,1409.0272 1216.58626,1371.09366 1084.43279,1357.9865 C909.49834,1340.64304 759.524897,1399.00975 620.034838,1495.70226 C563.392558,1534.96341 513.156462,1583.72906 459.234292,1627.1722 C362.42447,1705.15742 266.225043,1784.39784 144.655705,1820.77445 C109.916529,1831.17208 74.47214,1837.70755 38.6366236,1842.90335 C9.49767308,1847.13361 0.395084505,1833.40488 0.525460123,1806.39398 C0.857325331,1738.72794 -0.713108244,1671.03775 0.412862999,1603.38981 C3.28705275,1431.6087 43.2294011,1267.16567 100.618377,1106.91065 C210.074635,801.239724 395.824333,551.600116 645.434379,350.768406 C740.910814,273.947863 845.537247,211.006916 955.740201,158.095485 C1025.88821,124.416345 1097.15034,92.6260373 1171.53555,70.8109343 C1259.0413,45.1578214 1347.7619,24.1694595 1438.84705,13.4097558 C1532.91899,2.28797573 1626.91981,-1.93021432 1721.39472,0.809497104 C1821.52319,3.7121429 1919.55381,20.6512838 2017.55479,41.3801576 C2153.83287,70.2135082 2282.39508,119.347276 2406.25191,182.348569 C2503.11507,231.621132 2594.53801,289.975779 2679.79774,358.203042 C2825.77102,475.014923 2949.94194,612.036701 3051.69419,770.294261 C3160.8008,939.993434 3237.42018,1123.77738 3280.0056,1321.62799 C3301.96796,1423.64905 3317.32858,1527.046 3312.89581,1635.33702 C3243.2219,1569.21584 3188.79008,1493.59618 3134.53011,1418.36877 C3036.28616,1282.1677 2919.20293,1167.70932 2765.64416,1101.08122 C2535.86306,1001.38349 2312.7963,1020.04853 2100.74036,1157.63152 C2016.89698,1212.02747 1939.35905,1275.37877 1857.54835,1332.68943 C1739.39841,1415.46009 1609.76949,1445.32536 1468.96382,1424.97667 C1443.57613,1421.31366 1419.37368,1408.41167 1387.93537,1407.38579 C1439.81302,1449.9177 1498.15018,1466.72408 1555.96584,1483.31321 C1675.20619,1517.52943 1795.69104,1514.89231 1914.88399,1484.87617 C1968.05946,1471.48538 2017.95777,1446.15814 2068.42498,1423.61285 C2151.08313,1386.68709 2235.73246,1356.82785 2326.66945,1346.15264 C2372.15276,1340.80597 2416.43306,1341.22236 2461.23487,1346.99145 C2488.2641,1350.47341 2513.10658,1360.39431 2533.83038,1378.34726 C2576.04838,1414.91094 2565.32795,1474.14061 2512.41322,1492.2565 C2485.5914,1501.44117 2456.86136,1504.64554 2429.45877,1512.28536 C2392.56247,1522.56833 2359.04409,1539.01866 2329.54957,1565.36576 C2287.50936,1602.92515 2239.79781,1634.12406 2206.90167,1681.62849 C2201.09403,1690.01659 2189.81061,1698.40469 2197.66278,1709.68337 C2206.26164,1722.03018 2214.96718,1708.76008 2223.16899,1706.0264 C2305.85676,1678.47842 2386.60075,1642.74148 2473.62055,1632.25937 C2546.69608,1623.45488 2616.7552,1636.15169 2677.62876,1683.54749 C2688.1477,1691.73042 2702.19864,1695.07963 2714.16949,1701.52459 C2721.76091,1705.61605 2732.25022,1709.12216 2732.07836,1719.54392 C2731.87687,1731.33554 2719.9475,1731.00967 2712.11311,1733.64076 C2664.10525,1749.7592 2618.39675,1770.80187 2576.44543,1799.62919 C2569.61256,1804.33015 2554.53047,1806.74399 2560.74702,1819.1089 C2565.74278,1829.03583 2575.85874,1820.35806 2584.16722,1818.19164 C2749.11608,1775.11058 2912.08561,1763.2224 3068.40597,1851.47249 C3123.1578,1882.38175 3170.93454,1921.76359 3214.37333,1971.57323"/><path fill="#64B5DA" d="M493.694346,2459.60696 C566.372826,2515.63225 646.838287,2558.10985 735.475929,2576.6904 C860.387623,2602.88059 984.339278,2592.98987 1104.46856,2544.54405 C1182.6643,2513.0072 1254.04495,2468.34507 1328.43016,2429.45807 C1379.2648,2402.88769 1430.67428,2377.37338 1487.02025,2365.27399 C1533.83102,2355.22637 1580.86699,2352.95736 1627.65998,2367.13265 C1681.60586,2383.47436 1714.01605,2438.93843 1700.97849,2494.20336 C1693.92636,2524.0807 1668.92387,2538.33444 1645.13032,2546.31822 C1527.66781,2585.73024 1452.14477,2674.86138 1382.42345,2770.96853 C1361.25519,2800.14585 1344.1345,2832.42496 1325.98858,2863.78078 C1320.41799,2873.40597 1313.83402,2884.06912 1320.31132,2898.41942 C1363.46565,2860.31691 1404.80064,2822.53424 1447.52236,2786.45333 C1493.29606,2747.80771 1543.18251,2715.03376 1600.10925,2696.39286 C1676.48565,2671.38545 1751.84276,2672.95444 1825.42794,2710.06728 C1866.29477,2730.68149 1907.55273,2749.94999 1939.31105,2784.65501 C1944.692,2790.53272 1950.35149,2796.19318 1955.2465,2802.46917 C1988.85378,2845.53213 1980.53345,2864.45062 1928.05133,2874.72152 C1841.64786,2891.63652 1760.83868,2921.97249 1690.84475,2979.48832 C1670.16244,2996.48178 1652.95878,3016.68564 1628.82151,3035.78517 C1650.87277,3040.51027 1666.18005,3030.48679 1681.71846,3023.29957 C1772.31766,2981.35905 1866.96443,2958.77755 1966.42917,2970.5209 C2030.79917,2978.11847 2089.98378,3005.08109 2147.15941,3035.9119 C2221.66315,3076.09031 2299.85889,3106.95732 2385.88902,3131.72938 C2107.1578,3275.7332 1813.16078,3335.77754 1508.56778,3306.39504 C955.271442,3253.01894 531.218819,2975.51755 230.720799,2500.60608 C246.982194,2486.49113 266.544463,2496.07409 284.411849,2493.06282 C354.073912,2481.31344 423.919686,2470.66236 493.694346,2459.60696"/><path fill="#E82440" d="M493.694346 2459.60696C423.919686 2470.66236 354.073912 2481.31344 284.411849 2493.06282 266.544463 2496.07409 246.982194 2486.49113 230.720799 2500.60608 190.932531 2444.36958 163.085484 2381.50708 134.367291 2319.21787 77.1560998 2195.12222 40.6390746 2064.26781 13.9179991 1930.34178 13.0290745 1925.88824 13.2601949 1919.26828 15.8736334 1916.48633 19.4826675 1912.64228 24.869551 1916.19063 29.1363894 1918.8881 77.0079457 1949.15165 128.595207 1968.19084 184.508569 1977.24878 219.253671 1982.87907 253.050587 1980.0247 286.468228 1973.29008 383.734365 1953.68364 472.982401 1914.40439 554.881994 1857.12994 645.741947 1793.5976 738.2553 1732.62997 842.579499 1693.749 885.407889 1677.7935 929.883753 1669.73126 975.918198 1672.32011 1022.75268 1674.95723 1061.65202 1705.11819 1069.05972 1745.51989 1079.00383 1799.74083 1052.68573 1849.51426 1005.62606 1868.39655 893.45562 1913.39661 793.75383 1978.09363 708.458545 2065.3299 704.938403 2068.93256 699.918942 2070.07914 704.262821 2076.39737 709.839341 2084.49581 715.208446 2079.61381 721.899086 2077.77326 786.180192 2060.04359 850.010909 2040.75698 915.240201 2026.41272 979.041287 2012.37623 1043.28091 2009.26237 1108.07167 2008.96667 1125.91535 2008.88822 1140.24481 2018.47118 1154.99504 2025.01873 1210.00169 2049.45889 1263.87053 2076.54823 1318.87719 2102.98585 1316.00892 2107.023 1314.83554 2110.42652 1312.54804 2111.63344 1201.92433 2169.96395 1098.96315 2240.75592 996.144198 2311.916 911.945253 2370.18616 815.556189 2396.44273 717.318161 2415.74744 646.784952 2429.60893 575.623569 2440.17553 504.693307 2451.90077 499.300497 2452.79389 495.276632 2453.92236 493.694346 2459.60696M1941.53751 2209.74045C1969.349 2209.04647 1984.05181 2224.5011 2000.59766 2233.80043 2123.50631 2302.87857 2254.16046 2320.2341 2391.24449 2296.77155 2436.82855 2288.9688 2482.14593 2279.36774 2527.88407 2272.74778 2555.2748 2268.78304 2579.98691 2282.16177 2601.65889 2296.70517 2692.63144 2357.76332 2782.81581 2419.95597 2879.31155 2471.99239 2896.50927 2481.26758 2913.9322 2492.71523 2926.73271 2507.28277 2952.10855 2536.16439 2989.3782 2542.31969 3019.1631 2562.40286 3031.17544 2570.50131 3031.68509 2574.22466 3023.95144 2587.10251 2976.30508 2666.48173 2913.33366 2732.56067 2850.38001 2798.7241 2828.00281 2822.24699 2796.9912 2816.29687 2769.92048 2817.99259 2605.62942 2828.2816 2466.06825 2765.69669 2339.74613 2663.91098 2297.27331 2629.69476 2257.73394 2591.50174 2222.51474 2551.15436 2168.74072 2489.55309 2124.57302 2419.23786 2076.67776 2352.36838 2039.337 2300.23541 1995.48338 2254.51723 1941.53751 2209.74045"/><path fill="#64B5DA" d="M2661.13684,2960.85406 C2621.66266,3007.69468 2567.2901,3012.5284 2513.85387,3017.14487 C2386.68431,3028.11579 2278.79849,2980.40015 2181.5205,2901.10542 C2127.93019,2857.4209 2085.10773,2803.53187 2041.24226,2750.66871 C1999.80059,2700.72631 1952.50387,2659.96254 1890.74731,2638.32244 C1864.31662,2629.06535 1845.49512,2609.84513 1834.9347,2583.55839 C1821.0971,2549.09475 1836.17919,2523.20628 1872.61325,2524.56407 C1945.27988,2527.27361 2006.56235,2550.69392 2059.46522,2609.00029 C2105.10261,2659.29873 2153.42455,2708.98165 2208.86382,2750.70492 C2260.12514,2789.28416 2308.37005,2831.6471 2364.40193,2863.67276 C2456.82639,2916.4997 2553.74881,2954.10737 2661.13684,2960.85406"/><path fill="#E82440" d="M1930.29972 2189.56797C1884.04008 2169.20721 1845.36593 2138.09881 1801.6664 2115.09489 1733.04141 2078.97777 1662.69191 2049.95131 1583.40576 2053.56604 1573.93575 2053.9945 1567.3103 2050.50046 1559.96778 2044.23654 1485.25662 1980.49299 1399.14353 1943.88706 1302.29222 1932.42734 1279.0261 1929.67556 1256.0148 1923.84613 1233.19907 1918.1374 1182.85038 1905.54317 1163.7385 1859.34222 1190.95737 1813.32231 1219.82372 1764.52045 1267.76046 1748.40201 1319.51958 1745.69248 1383.46882 1742.34327 1441.20744 1764.617 1493.44066 1801.2712 1530.80512 1827.49157 1560.31742 1862.54056 1593.05355 1894.05932 1693.88724 1991.1501 1793.74311 2089.81592 1907.54918 2171.85036 1915.33616 2177.46255 1922.72608 2183.64802 1930.29972 2189.56797M3299.21348 1866.11728C3260.33192 1836.33046 3224.14676 1804.02721 3182.391 1779.48446 3092.59776 1726.69976 2996.94947 1696.64138 2892.60156 1698.35521 2878.60396 1698.58453 2865.17527 1698.16814 2853.76148 1687.90931 2815.06955 1653.14394 2769.95959 1628.14256 2725.9756 1601.42736 2701.10348 1586.3167 2679.82855 1566.71027 2662.99825 1542.94599 2631.12141 1497.92782 2643.37079 1461.73828 2695.95957 1446.28366 2749.5084 1430.53937 2802.60683 1434.75152 2853.45332 1457.3813 2910.03634 1482.55164 2949.69423 1527.8474 2988.01874 1575.67166 3065.90631 1672.85296 3158.5619 1751.37527 3274.56064 1798.19174 3313.02145 1813.71275 3315.46303 1820.01288 3299.21348 1866.11728"/></g></svg>